<svg xmlns="http://www.w3.org/2000/svg" xmlns:xlink="http://www.w3.org/1999/xlink" width="100%" zoomAndPan="magnify" viewBox="0 0 1440 809.999993" height="100%" preserveAspectRatio="xMidYMid meet" version="1.0"><defs><g/></defs><g fill="#a20000" fill-opacity="1"><g transform="translate(54.457155, 384.70399)"><g><path d="M 57.453125 -133.4375 C 60.984375 -133.4375 65.046875 -133.148438 69.640625 -132.578125 C 74.242188 -132.015625 78.5625 -131.007812 82.59375 -129.5625 C 86.625 -128.113281 90.023438 -126.222656 92.796875 -123.890625 C 95.566406 -121.554688 96.953125 -118.691406 96.953125 -115.296875 C 96.953125 -113.273438 96.382812 -111.570312 95.25 -110.1875 C 94.125 -108.800781 92.300781 -108.109375 89.78125 -108.109375 C 87.882812 -108.109375 85.957031 -108.484375 84 -109.234375 C 82.050781 -109.992188 79.847656 -110.78125 77.390625 -111.59375 C 74.929688 -112.414062 72.097656 -113.203125 68.890625 -113.953125 C 65.679688 -114.710938 61.929688 -115.09375 57.640625 -115.09375 C 49.328125 -115.09375 43.1875 -113.613281 39.21875 -110.65625 C 35.25 -107.695312 33.265625 -103.632812 33.265625 -98.46875 C 33.265625 -94.9375 34.144531 -91.972656 35.90625 -89.578125 C 37.675781 -87.191406 40.039062 -85.144531 43 -83.4375 C 45.957031 -81.738281 49.296875 -80.320312 53.015625 -79.1875 C 56.734375 -78.050781 60.546875 -76.984375 64.453125 -75.984375 C 68.859375 -74.847656 73.234375 -73.457031 77.578125 -71.8125 C 81.929688 -70.175781 85.804688 -68.035156 89.203125 -65.390625 C 92.609375 -62.742188 95.347656 -59.40625 97.421875 -55.375 C 99.503906 -51.34375 100.546875 -46.238281 100.546875 -40.0625 C 100.546875 -33.632812 99.347656 -27.867188 96.953125 -22.765625 C 94.554688 -17.671875 91.28125 -13.328125 87.125 -9.734375 C 82.96875 -6.140625 77.988281 -3.363281 72.1875 -1.40625 C 66.394531 0.539062 60.097656 1.515625 53.296875 1.515625 C 49.515625 1.515625 45.101562 1.164062 40.0625 0.46875 C 35.03125 -0.21875 30.242188 -1.410156 25.703125 -3.109375 C 21.171875 -4.816406 17.328125 -7.085938 14.171875 -9.921875 C 11.023438 -12.753906 9.453125 -16.25 9.453125 -20.40625 C 9.453125 -22.925781 10.113281 -24.941406 11.4375 -26.453125 C 12.757812 -27.972656 14.742188 -28.734375 17.390625 -28.734375 C 19.523438 -28.734375 21.285156 -28.320312 22.671875 -27.5 C 24.066406 -26.675781 25.265625 -25.765625 26.265625 -24.765625 C 30.046875 -21.484375 34.332031 -19.273438 39.125 -18.140625 C 43.914062 -17.003906 48.828125 -16.4375 53.859375 -16.4375 C 56.765625 -16.4375 59.820312 -16.65625 63.03125 -17.09375 C 66.238281 -17.539062 69.164062 -18.457031 71.8125 -19.84375 C 74.457031 -21.226562 76.660156 -23.210938 78.421875 -25.796875 C 80.191406 -28.378906 81.078125 -31.875 81.078125 -36.28125 C 81.078125 -40.320312 80.289062 -43.628906 78.71875 -46.203125 C 77.144531 -48.785156 75.035156 -50.957031 72.390625 -52.71875 C 69.742188 -54.488281 66.625 -55.941406 63.03125 -57.078125 C 59.4375 -58.210938 55.5625 -59.347656 51.40625 -60.484375 C 46.75 -61.742188 42.148438 -63.128906 37.609375 -64.640625 C 33.078125 -66.148438 29.046875 -68.195312 25.515625 -70.78125 C 21.984375 -73.363281 19.113281 -76.640625 16.90625 -80.609375 C 14.707031 -84.578125 13.609375 -89.648438 13.609375 -95.828125 C 13.609375 -101.992188 14.738281 -107.40625 17 -112.0625 C 19.269531 -116.726562 22.359375 -120.632812 26.265625 -123.78125 C 30.171875 -126.9375 34.800781 -129.332031 40.15625 -130.96875 C 45.507812 -132.613281 51.273438 -133.4375 57.453125 -133.4375 Z M 57.453125 -133.4375 "/></g></g></g><g fill="#a20000" fill-opacity="1"><g transform="translate(164.448318, 384.70399)"><g><path d="M 27.78125 -12.28125 C 27.40625 -20.21875 27.1875 -29.632812 27.125 -40.53125 C 27.0625 -51.4375 27.03125 -63.816406 27.03125 -77.671875 C 25.769531 -77.546875 24.285156 -77.484375 22.578125 -77.484375 C 20.878906 -77.484375 19.523438 -77.484375 18.515625 -77.484375 C 16.253906 -77.484375 14.207031 -77.546875 12.375 -77.671875 C 10.550781 -77.804688 8.945312 -78.1875 7.5625 -78.8125 C 6.175781 -79.445312 5.101562 -80.359375 4.34375 -81.546875 C 3.59375 -82.742188 3.21875 -84.414062 3.21875 -86.5625 C 3.21875 -92.613281 7.753906 -95.640625 16.828125 -95.640625 C 18.210938 -95.640625 19.910156 -95.640625 21.921875 -95.640625 C 23.941406 -95.640625 25.644531 -95.507812 27.03125 -95.25 C 27.03125 -101.925781 27.15625 -107.28125 27.40625 -111.3125 C 27.65625 -115.351562 28.125 -118.472656 28.8125 -120.671875 C 29.507812 -122.878906 30.457031 -124.328125 31.65625 -125.015625 C 32.851562 -125.710938 34.394531 -126.0625 36.28125 -126.0625 C 38.300781 -126.0625 39.941406 -125.367188 41.203125 -123.984375 C 42.460938 -122.597656 43.4375 -120.832031 44.125 -118.6875 C 44.820312 -116.550781 45.265625 -114.160156 45.453125 -111.515625 C 45.640625 -108.867188 45.734375 -106.285156 45.734375 -103.765625 C 45.734375 -101.992188 45.703125 -100.382812 45.640625 -98.9375 C 45.578125 -97.488281 45.546875 -96.195312 45.546875 -95.0625 C 47.304688 -95.570312 49.128906 -95.859375 51.015625 -95.921875 C 52.910156 -95.984375 54.742188 -96.015625 56.515625 -96.015625 C 61.171875 -96.015625 64.757812 -95.289062 67.28125 -93.84375 C 69.800781 -92.394531 71.0625 -90.03125 71.0625 -86.75 C 71.0625 -84.738281 70.617188 -83.132812 69.734375 -81.9375 C 68.859375 -80.738281 67.695312 -79.820312 66.25 -79.1875 C 64.800781 -78.5625 63.097656 -78.148438 61.140625 -77.953125 C 59.191406 -77.765625 57.082031 -77.671875 54.8125 -77.671875 C 53.550781 -77.671875 52.097656 -77.671875 50.453125 -77.671875 C 48.816406 -77.671875 47.304688 -77.800781 45.921875 -78.0625 C 45.921875 -71.382812 45.921875 -65.269531 45.921875 -59.71875 C 45.921875 -54.175781 45.859375 -48.851562 45.734375 -43.75 C 45.609375 -38.644531 45.484375 -33.570312 45.359375 -28.53125 C 45.234375 -23.5 45.046875 -18.144531 44.796875 -12.46875 C 44.671875 -9.445312 44.382812 -7.117188 43.9375 -5.484375 C 43.5 -3.847656 42.898438 -2.585938 42.140625 -1.703125 C 41.390625 -0.816406 40.539062 -0.28125 39.59375 -0.09375 C 38.644531 0.09375 37.539062 0.1875 36.28125 0.1875 C 34.019531 0.1875 32.097656 -0.597656 30.515625 -2.171875 C 28.941406 -3.742188 28.03125 -7.113281 27.78125 -12.28125 Z M 27.78125 -12.28125 "/></g></g></g><g fill="#a20000" fill-opacity="1"><g transform="translate(239.476661, 384.70399)"><g><path d="M 89.015625 0.75 C 87.003906 0.75 85.398438 0.40625 84.203125 -0.28125 C 83.003906 -0.976562 82.085938 -1.890625 81.453125 -3.015625 C 80.828125 -4.148438 80.390625 -5.503906 80.140625 -7.078125 C 79.890625 -8.660156 79.695312 -10.332031 79.5625 -12.09375 C 76.414062 -8.1875 72.351562 -4.910156 67.375 -2.265625 C 62.394531 0.378906 56.066406 1.703125 48.390625 1.703125 C 43.472656 1.703125 38.460938 0.976562 33.359375 -0.46875 C 28.253906 -1.914062 23.625 -4.4375 19.46875 -8.03125 C 15.3125 -11.625 11.910156 -16.441406 9.265625 -22.484375 C 6.617188 -28.535156 5.296875 -36.160156 5.296875 -45.359375 C 5.296875 -52.546875 6.175781 -59.285156 7.9375 -65.578125 C 9.695312 -71.878906 12.375 -77.390625 15.96875 -82.109375 C 19.5625 -86.835938 24.066406 -90.585938 29.484375 -93.359375 C 34.898438 -96.140625 41.265625 -97.53125 48.578125 -97.53125 C 55.003906 -97.53125 60.734375 -96.363281 65.765625 -94.03125 C 70.804688 -91.695312 75.34375 -87.882812 79.375 -82.59375 C 79.375 -84.101562 79.4375 -85.644531 79.5625 -87.21875 C 79.695312 -88.800781 80.046875 -90.253906 80.609375 -91.578125 C 81.171875 -92.898438 82.082031 -93.96875 83.34375 -94.78125 C 84.601562 -95.601562 86.304688 -96.015625 88.453125 -96.015625 C 90.335938 -96.015625 92.097656 -95.253906 93.734375 -93.734375 C 95.378906 -92.222656 96.328125 -88.953125 96.578125 -83.921875 C 96.953125 -77.242188 97.234375 -71.253906 97.421875 -65.953125 C 97.617188 -60.660156 97.71875 -55.179688 97.71875 -49.515625 C 97.71875 -42.585938 97.648438 -36.222656 97.515625 -30.421875 C 97.390625 -24.628906 97.078125 -18.457031 96.578125 -11.90625 C 96.328125 -9.007812 95.976562 -6.707031 95.53125 -5 C 95.09375 -3.300781 94.554688 -2.039062 93.921875 -1.21875 C 93.296875 -0.40625 92.539062 0.125 91.65625 0.375 C 90.78125 0.625 89.898438 0.75 89.015625 0.75 Z M 78.8125 -47.25 C 78.8125 -53.800781 77.832031 -59.15625 75.875 -63.3125 C 73.925781 -67.46875 71.472656 -70.710938 68.515625 -73.046875 C 65.554688 -75.378906 62.375 -76.984375 58.96875 -77.859375 C 55.5625 -78.742188 52.410156 -79.1875 49.515625 -79.1875 C 44.984375 -79.1875 41.109375 -78.367188 37.890625 -76.734375 C 34.679688 -75.097656 32.066406 -72.859375 30.046875 -70.015625 C 28.035156 -67.179688 26.554688 -63.84375 25.609375 -60 C 24.660156 -56.164062 24.1875 -51.976562 24.1875 -47.4375 C 24.1875 -36.351562 26.613281 -28.164062 31.46875 -22.875 C 36.320312 -17.582031 42.90625 -14.9375 51.21875 -14.9375 C 56.132812 -14.9375 60.320312 -15.785156 63.78125 -17.484375 C 67.25 -19.179688 70.082031 -21.476562 72.28125 -24.375 C 74.488281 -27.28125 76.128906 -30.71875 77.203125 -34.6875 C 78.273438 -38.65625 78.8125 -42.84375 78.8125 -47.25 Z M 78.8125 -47.25 "/></g></g></g><g fill="#a20000" fill-opacity="1"><g transform="translate(347.766924, 384.70399)"><g><path d="M 33.640625 34.59375 C 32.003906 37.488281 30.460938 39.628906 29.015625 41.015625 C 27.566406 42.398438 25.894531 43.09375 24 43.09375 C 22.238281 43.09375 20.472656 42.523438 18.703125 41.390625 C 16.941406 40.253906 16.0625 38.679688 16.0625 36.671875 C 16.0625 34.773438 16.722656 32.0625 18.046875 28.53125 C 19.367188 25.007812 21.003906 21.164062 22.953125 17 C 24.910156 12.84375 26.957031 8.5625 29.09375 4.15625 C 31.238281 -0.25 33.195312 -4.28125 34.96875 -7.9375 L 36.28125 -10.765625 C 32.507812 -18.203125 28.640625 -26.140625 24.671875 -34.578125 C 20.703125 -43.023438 17.078125 -51.03125 13.796875 -58.59375 C 10.523438 -66.15625 7.847656 -72.738281 5.765625 -78.34375 C 3.679688 -83.945312 2.640625 -87.628906 2.640625 -89.390625 C 2.640625 -91.035156 3.300781 -92.453125 4.625 -93.640625 C 5.945312 -94.835938 7.617188 -95.4375 9.640625 -95.4375 C 11.398438 -95.4375 13.097656 -95.085938 14.734375 -94.390625 C 16.378906 -93.703125 17.894531 -92.164062 19.28125 -89.78125 C 21.289062 -86 23.398438 -81.679688 25.609375 -76.828125 C 27.816406 -71.972656 30.019531 -66.898438 32.21875 -61.609375 C 34.425781 -56.316406 36.695312 -50.960938 39.03125 -45.546875 C 41.363281 -40.128906 43.722656 -34.898438 46.109375 -29.859375 C 48.890625 -35.023438 51.851562 -40.441406 55 -46.109375 C 58.144531 -51.785156 61.195312 -57.269531 64.15625 -62.5625 C 67.125 -67.851562 69.867188 -72.734375 72.390625 -77.203125 C 74.910156 -81.679688 77.050781 -85.429688 78.8125 -88.453125 C 80.570312 -91.347656 82.332031 -93.425781 84.09375 -94.6875 C 85.863281 -95.945312 87.695312 -96.578125 89.59375 -96.578125 C 90.84375 -96.578125 92.097656 -96.039062 93.359375 -94.96875 C 94.617188 -93.894531 95.25 -92.476562 95.25 -90.71875 C 95.25 -88.070312 94.082031 -83.816406 91.75 -77.953125 C 89.425781 -72.097656 86.4375 -65.328125 82.78125 -57.640625 C 79.125 -49.953125 74.992188 -41.726562 70.390625 -32.96875 C 65.796875 -24.21875 61.226562 -15.648438 56.6875 -7.265625 C 52.15625 1.109375 47.84375 8.945312 43.75 16.25 C 39.65625 23.5625 36.285156 29.675781 33.640625 34.59375 Z M 33.640625 34.59375 "/></g></g></g><g fill="#a20000" fill-opacity="1"><g transform="translate(445.662839, 384.70399)"><g/></g></g><g fill="#ffbd59" fill-opacity="1"><g transform="translate(485.156355, 384.70399)"><g><path d="M 45.546875 -11.71875 C 45.296875 -18.644531 45.078125 -26.046875 44.890625 -33.921875 C 44.703125 -41.796875 44.609375 -50.898438 44.609375 -61.234375 L 7 -115.09375 C 5.988281 -116.488281 5.195312 -117.941406 4.625 -119.453125 C 4.0625 -120.960938 3.78125 -122.410156 3.78125 -123.796875 C 3.78125 -126.191406 4.441406 -128.175781 5.765625 -129.75 C 7.085938 -131.320312 9.382812 -132.109375 12.65625 -132.109375 C 15.300781 -132.109375 17.664062 -131.382812 19.75 -129.9375 C 21.832031 -128.488281 23.753906 -126.378906 25.515625 -123.609375 L 53.671875 -78.8125 L 81.84375 -123.609375 C 83.601562 -126.378906 85.519531 -128.488281 87.59375 -129.9375 C 89.675781 -131.382812 92.039062 -132.109375 94.6875 -132.109375 C 97.96875 -132.109375 100.269531 -131.320312 101.59375 -129.75 C 102.914062 -128.175781 103.578125 -126.191406 103.578125 -123.796875 C 103.578125 -122.410156 103.289062 -120.960938 102.71875 -119.453125 C 102.15625 -117.941406 101.367188 -116.488281 100.359375 -115.09375 L 63.5 -62.375 C 63.5 -53.800781 63.40625 -45.578125 63.21875 -37.703125 C 63.03125 -29.828125 62.75 -21.226562 62.375 -11.90625 C 62.25 -8.882812 61.960938 -6.550781 61.515625 -4.90625 C 61.078125 -3.269531 60.476562 -2.007812 59.71875 -1.125 C 58.96875 -0.25 58.117188 0.28125 57.171875 0.46875 C 56.222656 0.65625 55.117188 0.75 53.859375 0.75 C 51.597656 0.75 49.707031 -0.0351562 48.1875 -1.609375 C 46.675781 -3.179688 45.796875 -6.550781 45.546875 -11.71875 Z M 45.546875 -11.71875 "/></g></g></g><g fill="#ffbd59" fill-opacity="1"><g transform="translate(592.501691, 384.70399)"><g><path d="M 55.1875 -95.828125 C 62.375 -95.828125 68.800781 -94.722656 74.46875 -92.515625 C 80.132812 -90.304688 84.953125 -87.1875 88.921875 -83.15625 C 92.890625 -79.125 95.941406 -74.207031 98.078125 -68.40625 C 100.222656 -62.613281 101.296875 -56.128906 101.296875 -48.953125 C 101.296875 -41.015625 100.066406 -33.894531 97.609375 -27.59375 C 95.160156 -21.289062 91.757812 -15.929688 87.40625 -11.515625 C 83.0625 -7.109375 77.894531 -3.707031 71.90625 -1.3125 C 65.925781 1.070312 59.410156 2.265625 52.359375 2.265625 C 44.671875 2.265625 37.894531 0.941406 32.03125 -1.703125 C 26.175781 -4.347656 21.265625 -7.9375 17.296875 -12.46875 C 13.328125 -17.007812 10.332031 -22.238281 8.3125 -28.15625 C 6.300781 -34.082031 5.296875 -40.320312 5.296875 -46.875 C 5.296875 -54.050781 6.457031 -60.628906 8.78125 -66.609375 C 11.113281 -72.597656 14.453125 -77.765625 18.796875 -82.109375 C 23.148438 -86.460938 28.410156 -89.835938 34.578125 -92.234375 C 40.753906 -94.628906 47.625 -95.828125 55.1875 -95.828125 Z M 53.109375 -15.125 C 58.273438 -15.125 62.679688 -16.035156 66.328125 -17.859375 C 69.984375 -19.679688 72.976562 -22.101562 75.3125 -25.125 C 77.644531 -28.15625 79.347656 -31.59375 80.421875 -35.4375 C 81.492188 -39.28125 82.03125 -43.28125 82.03125 -47.4375 C 82.03125 -51.71875 81.492188 -55.71875 80.421875 -59.4375 C 79.347656 -63.15625 77.707031 -66.398438 75.5 -69.171875 C 73.300781 -71.941406 70.46875 -74.113281 67 -75.6875 C 63.53125 -77.269531 59.40625 -78.0625 54.625 -78.0625 C 49.707031 -78.0625 45.421875 -77.238281 41.765625 -75.59375 C 38.109375 -73.957031 35.050781 -71.722656 32.59375 -68.890625 C 30.144531 -66.054688 28.289062 -62.6875 27.03125 -58.78125 C 25.769531 -54.875 25.140625 -50.648438 25.140625 -46.109375 C 25.140625 -36.910156 27.5 -29.445312 32.21875 -23.71875 C 36.945312 -17.988281 43.910156 -15.125 53.109375 -15.125 Z M 53.109375 -15.125 "/></g></g></g><g fill="#ffbd59" fill-opacity="1"><g transform="translate(699.091052, 384.70399)"><g><path d="M 28.15625 -85.609375 C 28.40625 -82.335938 28.5 -78.367188 28.4375 -73.703125 C 28.375 -69.046875 28.4375 -64.164062 28.625 -59.0625 C 28.820312 -53.957031 29.234375 -48.851562 29.859375 -43.75 C 30.492188 -38.644531 31.597656 -34.078125 33.171875 -30.046875 C 34.742188 -26.015625 36.945312 -22.738281 39.78125 -20.21875 C 42.613281 -17.695312 46.300781 -16.4375 50.84375 -16.4375 C 55.375 -16.4375 59.054688 -17.695312 61.890625 -20.21875 C 64.734375 -22.738281 66.941406 -26.015625 68.515625 -30.046875 C 70.085938 -34.078125 71.1875 -38.644531 71.8125 -43.75 C 72.445312 -48.851562 72.859375 -53.957031 73.046875 -59.0625 C 73.234375 -64.164062 73.296875 -69.046875 73.234375 -73.703125 C 73.171875 -78.367188 73.265625 -82.335938 73.515625 -85.609375 C 74.023438 -93.421875 77.238281 -97.328125 83.15625 -97.328125 C 85.425781 -97.328125 87.191406 -96.695312 88.453125 -95.4375 C 89.710938 -94.1875 90.625 -92.425781 91.1875 -90.15625 C 91.757812 -87.882812 92.109375 -85.171875 92.234375 -82.015625 C 92.359375 -78.867188 92.421875 -75.34375 92.421875 -71.4375 C 92.421875 -63.375 92.007812 -55.023438 91.1875 -46.390625 C 90.375 -37.765625 88.546875 -29.859375 85.703125 -22.671875 C 82.867188 -15.492188 78.679688 -9.570312 73.140625 -4.90625 C 67.597656 -0.25 60.164062 2.078125 50.84375 2.078125 C 41.519531 2.078125 34.082031 -0.25 28.53125 -4.90625 C 22.988281 -9.570312 18.800781 -15.492188 15.96875 -22.671875 C 13.132812 -29.859375 11.304688 -37.765625 10.484375 -46.390625 C 9.671875 -55.023438 9.265625 -63.375 9.265625 -71.4375 C 9.265625 -75.34375 9.328125 -78.867188 9.453125 -82.015625 C 9.578125 -85.171875 9.921875 -87.882812 10.484375 -90.15625 C 11.054688 -92.425781 11.972656 -94.1875 13.234375 -95.4375 C 14.492188 -96.695312 16.253906 -97.328125 18.515625 -97.328125 C 24.441406 -97.328125 27.65625 -93.421875 28.15625 -85.609375 Z M 28.15625 -85.609375 "/></g></g></g><g fill="#ffbd59" fill-opacity="1"><g transform="translate(801.711683, 384.70399)"><g><path d="M 12.46875 -11.53125 C 11.96875 -15.9375 11.65625 -21.289062 11.53125 -27.59375 C 11.40625 -33.894531 11.34375 -41.519531 11.34375 -50.46875 C 11.34375 -59.28125 11.375 -66.394531 11.4375 -71.8125 C 11.5 -77.238281 11.84375 -82.03125 12.46875 -86.1875 C 13.101562 -91.351562 14.082031 -94.691406 15.40625 -96.203125 C 16.726562 -97.710938 18.457031 -98.46875 20.59375 -98.46875 C 22.113281 -98.46875 23.46875 -98.34375 24.65625 -98.09375 C 25.851562 -97.84375 26.925781 -97.304688 27.875 -96.484375 C 28.820312 -95.660156 29.546875 -94.492188 30.046875 -92.984375 C 30.554688 -91.472656 30.8125 -89.394531 30.8125 -86.75 C 30.8125 -86.25 30.875 -85.742188 31 -85.234375 C 31 -84.734375 31.03125 -84.195312 31.09375 -83.625 C 31.15625 -83.0625 31.1875 -82.398438 31.1875 -81.640625 C 34.582031 -85.929688 38.453125 -89.585938 42.796875 -92.609375 C 47.148438 -95.628906 52.097656 -97.140625 57.640625 -97.140625 C 65.078125 -97.140625 68.796875 -94.054688 68.796875 -87.890625 C 68.796875 -85.617188 68.320312 -83.726562 67.375 -82.21875 C 66.4375 -80.707031 65.113281 -79.476562 63.40625 -78.53125 C 61.707031 -77.582031 59.753906 -76.851562 57.546875 -76.34375 C 55.347656 -75.84375 52.925781 -75.34375 50.28125 -74.84375 C 46.238281 -74.082031 42.453125 -72.660156 38.921875 -70.578125 C 35.398438 -68.503906 33.007812 -65.894531 31.75 -62.75 C 31.75 -60.351562 31.78125 -58.585938 31.84375 -57.453125 C 31.90625 -56.316406 31.96875 -55.367188 32.03125 -54.609375 C 32.09375 -53.859375 32.125 -53.039062 32.125 -52.15625 C 32.125 -51.28125 32.125 -49.894531 32.125 -48 C 32.125 -41.570312 32 -35.554688 31.75 -29.953125 C 31.5 -24.347656 31.25 -18.269531 31 -11.71875 C 30.875 -8.695312 30.523438 -6.363281 29.953125 -4.71875 C 29.390625 -3.082031 28.695312 -1.820312 27.875 -0.9375 C 27.0625 -0.0625 26.148438 0.46875 25.140625 0.65625 C 24.128906 0.84375 23.117188 0.9375 22.109375 0.9375 C 18.585938 0.9375 16.226562 0.148438 15.03125 -1.421875 C 13.832031 -2.992188 12.976562 -6.363281 12.46875 -11.53125 Z M 12.46875 -11.53125 "/></g></g></g><g fill="#a20000" fill-opacity="1"><g transform="translate(872.953211, 384.70399)"><g/></g></g><g fill="#a20000" fill-opacity="1"><g transform="translate(912.451759, 384.70399)"><g><path d="M 138.921875 -5.671875 C 138.160156 -7.816406 137.6875 -10.210938 137.5 -12.859375 C 137.3125 -15.503906 137.21875 -18.78125 137.21875 -22.6875 C 137.21875 -25.457031 137.25 -27.628906 137.3125 -29.203125 C 137.375 -30.773438 137.40625 -32.160156 137.40625 -33.359375 C 137.40625 -34.554688 137.4375 -35.753906 137.5 -36.953125 C 137.5625 -38.148438 137.59375 -39.816406 137.59375 -41.953125 C 137.59375 -46.367188 137.5 -50.8125 137.3125 -55.28125 C 137.125 -59.75 136.460938 -63.78125 135.328125 -67.375 C 134.191406 -70.96875 132.425781 -73.894531 130.03125 -76.15625 C 127.632812 -78.425781 124.171875 -79.5625 119.640625 -79.5625 C 111.953125 -79.5625 105.960938 -75.90625 101.671875 -68.59375 C 97.390625 -61.289062 94.8125 -49.640625 93.9375 -33.640625 C 93.6875 -28.597656 93.5625 -24 93.5625 -19.84375 C 93.5625 -15.6875 93.304688 -12.125 92.796875 -9.15625 C 92.296875 -6.195312 91.382812 -3.898438 90.0625 -2.265625 C 88.738281 -0.628906 86.5625 0.1875 83.53125 0.1875 C 80.757812 0.1875 78.742188 -0.535156 77.484375 -1.984375 C 76.222656 -3.429688 75.3125 -5.601562 74.75 -8.5 C 74.1875 -11.40625 73.867188 -14.9375 73.796875 -19.09375 C 73.734375 -23.25 73.515625 -28.097656 73.140625 -33.640625 C 72.765625 -39.691406 72.164062 -45.488281 71.34375 -51.03125 C 70.53125 -56.570312 69.207031 -61.453125 67.375 -65.671875 C 65.550781 -69.898438 63.09375 -73.269531 60 -75.78125 C 56.914062 -78.300781 52.976562 -79.5625 48.1875 -79.5625 C 43.65625 -79.5625 40.160156 -78.457031 37.703125 -76.25 C 35.242188 -74.050781 33.445312 -71.15625 32.3125 -67.5625 C 31.1875 -63.976562 30.523438 -59.945312 30.328125 -55.46875 C 30.140625 -51 30.046875 -46.492188 30.046875 -41.953125 C 30.046875 -39.691406 30.078125 -38.023438 30.140625 -36.953125 C 30.203125 -35.878906 30.234375 -34.898438 30.234375 -34.015625 C 30.234375 -33.140625 30.265625 -32.003906 30.328125 -30.609375 C 30.390625 -29.222656 30.421875 -27.082031 30.421875 -24.1875 C 30.421875 -20.03125 30.328125 -16.441406 30.140625 -13.421875 C 29.953125 -10.398438 29.484375 -7.816406 28.734375 -5.671875 C 27.847656 -3.148438 26.648438 -1.601562 25.140625 -1.03125 C 23.628906 -0.46875 22.242188 -0.1875 20.984375 -0.1875 C 17.078125 -0.1875 14.554688 -1.570312 13.421875 -4.34375 C 12.285156 -7.113281 11.65625 -11.144531 11.53125 -16.4375 C 11.53125 -19.34375 11.5 -22.585938 11.4375 -26.171875 C 11.375 -29.765625 11.34375 -34.144531 11.34375 -39.3125 C 11.34375 -41.832031 11.34375 -44.035156 11.34375 -45.921875 C 11.34375 -47.816406 11.375 -49.644531 11.4375 -51.40625 C 11.5 -53.164062 11.5625 -54.957031 11.625 -56.78125 C 11.6875 -58.613281 11.78125 -60.726562 11.90625 -63.125 C 12.28125 -70.8125 13.664062 -76.953125 16.0625 -81.546875 C 18.457031 -86.148438 21.289062 -89.648438 24.5625 -92.046875 C 27.84375 -94.441406 31.375 -95.984375 35.15625 -96.671875 C 38.9375 -97.367188 42.398438 -97.71875 45.546875 -97.71875 C 52.347656 -97.71875 58.078125 -96.707031 62.734375 -94.6875 C 67.398438 -92.675781 71.210938 -90.03125 74.171875 -86.75 C 77.140625 -83.476562 79.347656 -79.757812 80.796875 -75.59375 C 82.242188 -71.4375 83.222656 -67.21875 83.734375 -62.9375 C 84.234375 -67.09375 85.269531 -71.21875 86.84375 -75.3125 C 88.414062 -79.40625 90.742188 -83.054688 93.828125 -86.265625 C 96.921875 -89.484375 100.921875 -92.097656 105.828125 -94.109375 C 110.742188 -96.128906 116.796875 -97.140625 123.984375 -97.140625 C 127.390625 -97.140625 130.882812 -96.789062 134.46875 -96.09375 C 138.0625 -95.40625 141.367188 -93.863281 144.390625 -91.46875 C 147.421875 -89.082031 149.972656 -85.648438 152.046875 -81.171875 C 154.128906 -76.703125 155.359375 -70.6875 155.734375 -63.125 C 155.859375 -60.726562 155.953125 -58.613281 156.015625 -56.78125 C 156.078125 -54.957031 156.140625 -53.164062 156.203125 -51.40625 C 156.265625 -49.644531 156.296875 -47.816406 156.296875 -45.921875 C 156.296875 -44.035156 156.296875 -41.832031 156.296875 -39.3125 C 156.296875 -34.144531 156.265625 -29.765625 156.203125 -26.171875 C 156.140625 -22.585938 156.109375 -19.34375 156.109375 -16.4375 C 156.109375 -14.050781 156.015625 -11.847656 155.828125 -9.828125 C 155.640625 -7.804688 155.226562 -6.101562 154.59375 -4.71875 C 153.96875 -3.332031 153.054688 -2.226562 151.859375 -1.40625 C 150.660156 -0.59375 148.925781 -0.1875 146.65625 -0.1875 C 144.519531 -0.1875 142.882812 -0.59375 141.75 -1.40625 C 140.613281 -2.226562 139.671875 -3.648438 138.921875 -5.671875 Z M 138.921875 -5.671875 "/></g></g></g><g fill="#a20000" fill-opacity="1"><g transform="translate(1079.328401, 384.70399)"><g><path d="M 55.1875 -95.828125 C 62.375 -95.828125 68.800781 -94.722656 74.46875 -92.515625 C 80.132812 -90.304688 84.953125 -87.1875 88.921875 -83.15625 C 92.890625 -79.125 95.941406 -74.207031 98.078125 -68.40625 C 100.222656 -62.613281 101.296875 -56.128906 101.296875 -48.953125 C 101.296875 -41.015625 100.066406 -33.894531 97.609375 -27.59375 C 95.160156 -21.289062 91.757812 -15.929688 87.40625 -11.515625 C 83.0625 -7.109375 77.894531 -3.707031 71.90625 -1.3125 C 65.925781 1.070312 59.410156 2.265625 52.359375 2.265625 C 44.671875 2.265625 37.894531 0.941406 32.03125 -1.703125 C 26.175781 -4.347656 21.265625 -7.9375 17.296875 -12.46875 C 13.328125 -17.007812 10.332031 -22.238281 8.3125 -28.15625 C 6.300781 -34.082031 5.296875 -40.320312 5.296875 -46.875 C 5.296875 -54.050781 6.457031 -60.628906 8.78125 -66.609375 C 11.113281 -72.597656 14.453125 -77.765625 18.796875 -82.109375 C 23.148438 -86.460938 28.410156 -89.835938 34.578125 -92.234375 C 40.753906 -94.628906 47.625 -95.828125 55.1875 -95.828125 Z M 53.109375 -15.125 C 58.273438 -15.125 62.679688 -16.035156 66.328125 -17.859375 C 69.984375 -19.679688 72.976562 -22.101562 75.3125 -25.125 C 77.644531 -28.15625 79.347656 -31.59375 80.421875 -35.4375 C 81.492188 -39.28125 82.03125 -43.28125 82.03125 -47.4375 C 82.03125 -51.71875 81.492188 -55.71875 80.421875 -59.4375 C 79.347656 -63.15625 77.707031 -66.398438 75.5 -69.171875 C 73.300781 -71.941406 70.46875 -74.113281 67 -75.6875 C 63.53125 -77.269531 59.40625 -78.0625 54.625 -78.0625 C 49.707031 -78.0625 45.421875 -77.238281 41.765625 -75.59375 C 38.109375 -73.957031 35.050781 -71.722656 32.59375 -68.890625 C 30.144531 -66.054688 28.289062 -62.6875 27.03125 -58.78125 C 25.769531 -54.875 25.140625 -50.648438 25.140625 -46.109375 C 25.140625 -36.910156 27.5 -29.445312 32.21875 -23.71875 C 36.945312 -17.988281 43.910156 -15.125 53.109375 -15.125 Z M 53.109375 -15.125 "/></g></g></g><g fill="#a20000" fill-opacity="1"><g transform="translate(1185.917774, 384.70399)"><g><path d="M 55.1875 -95.828125 C 62.375 -95.828125 68.800781 -94.722656 74.46875 -92.515625 C 80.132812 -90.304688 84.953125 -87.1875 88.921875 -83.15625 C 92.890625 -79.125 95.941406 -74.207031 98.078125 -68.40625 C 100.222656 -62.613281 101.296875 -56.128906 101.296875 -48.953125 C 101.296875 -41.015625 100.066406 -33.894531 97.609375 -27.59375 C 95.160156 -21.289062 91.757812 -15.929688 87.40625 -11.515625 C 83.0625 -7.109375 77.894531 -3.707031 71.90625 -1.3125 C 65.925781 1.070312 59.410156 2.265625 52.359375 2.265625 C 44.671875 2.265625 37.894531 0.941406 32.03125 -1.703125 C 26.175781 -4.347656 21.265625 -7.9375 17.296875 -12.46875 C 13.328125 -17.007812 10.332031 -22.238281 8.3125 -28.15625 C 6.300781 -34.082031 5.296875 -40.320312 5.296875 -46.875 C 5.296875 -54.050781 6.457031 -60.628906 8.78125 -66.609375 C 11.113281 -72.597656 14.453125 -77.765625 18.796875 -82.109375 C 23.148438 -86.460938 28.410156 -89.835938 34.578125 -92.234375 C 40.753906 -94.628906 47.625 -95.828125 55.1875 -95.828125 Z M 53.109375 -15.125 C 58.273438 -15.125 62.679688 -16.035156 66.328125 -17.859375 C 69.984375 -19.679688 72.976562 -22.101562 75.3125 -25.125 C 77.644531 -28.15625 79.347656 -31.59375 80.421875 -35.4375 C 81.492188 -39.28125 82.03125 -43.28125 82.03125 -47.4375 C 82.03125 -51.71875 81.492188 -55.71875 80.421875 -59.4375 C 79.347656 -63.15625 77.707031 -66.398438 75.5 -69.171875 C 73.300781 -71.941406 70.46875 -74.113281 67 -75.6875 C 63.53125 -77.269531 59.40625 -78.0625 54.625 -78.0625 C 49.707031 -78.0625 45.421875 -77.238281 41.765625 -75.59375 C 38.109375 -73.957031 35.050781 -71.722656 32.59375 -68.890625 C 30.144531 -66.054688 28.289062 -62.6875 27.03125 -58.78125 C 25.769531 -54.875 25.140625 -50.648438 25.140625 -46.109375 C 25.140625 -36.910156 27.5 -29.445312 32.21875 -23.71875 C 36.945312 -17.988281 43.910156 -15.125 53.109375 -15.125 Z M 53.109375 -15.125 "/></g></g></g><g fill="#a20000" fill-opacity="1"><g transform="translate(1292.507147, 384.70399)"><g><path d="M 90.34375 -0.375 C 87.820312 -0.375 85.707031 -1.378906 84 -3.390625 C 82.300781 -5.410156 81.140625 -7.742188 80.515625 -10.390625 C 79.003906 -9.003906 77.269531 -7.617188 75.3125 -6.234375 C 73.363281 -4.847656 71.128906 -3.554688 68.609375 -2.359375 C 66.085938 -1.160156 63.3125 -0.1875 60.28125 0.5625 C 57.257812 1.320312 53.988281 1.703125 50.46875 1.703125 C 46.175781 1.703125 41.414062 0.976562 36.1875 -0.46875 C 30.957031 -1.914062 26.039062 -4.4375 21.4375 -8.03125 C 16.84375 -11.625 13.003906 -16.503906 9.921875 -22.671875 C 6.835938 -28.847656 5.296875 -36.597656 5.296875 -45.921875 C 5.296875 -53.859375 6.488281 -60.914062 8.875 -67.09375 C 11.269531 -73.269531 14.640625 -78.46875 18.984375 -82.6875 C 23.335938 -86.90625 28.503906 -90.117188 34.484375 -92.328125 C 40.472656 -94.535156 46.992188 -95.640625 54.046875 -95.640625 C 60.097656 -95.640625 64.882812 -94.941406 68.40625 -93.546875 C 71.9375 -92.160156 74.710938 -90.523438 76.734375 -88.640625 C 76.734375 -92.046875 76.734375 -95.921875 76.734375 -100.265625 C 76.734375 -104.609375 76.765625 -108.828125 76.828125 -112.921875 C 76.890625 -117.015625 76.953125 -120.765625 77.015625 -124.171875 C 77.078125 -127.578125 77.171875 -130.160156 77.296875 -131.921875 C 77.546875 -136.203125 78.300781 -139.128906 79.5625 -140.703125 C 80.820312 -142.285156 83.03125 -143.078125 86.1875 -143.078125 C 89.457031 -143.078125 91.691406 -142.285156 92.890625 -140.703125 C 94.085938 -139.128906 94.8125 -136.390625 95.0625 -132.484375 C 95.1875 -130.847656 95.28125 -128.644531 95.34375 -125.875 C 95.40625 -123.101562 95.4375 -120.078125 95.4375 -116.796875 C 95.4375 -113.523438 95.46875 -110.21875 95.53125 -106.875 C 95.601562 -103.539062 95.640625 -100.519531 95.640625 -97.8125 C 95.640625 -95.101562 95.640625 -92.863281 95.640625 -91.09375 C 95.640625 -89.332031 95.640625 -88.453125 95.640625 -88.453125 C 95.640625 -75.597656 95.539062 -63.753906 95.34375 -52.921875 C 95.15625 -42.085938 95.0625 -33.457031 95.0625 -27.03125 C 95.3125 -25.644531 95.847656 -24.320312 96.671875 -23.0625 C 97.492188 -21.800781 98.375 -20.539062 99.3125 -19.28125 C 100.257812 -18.019531 101.109375 -16.695312 101.859375 -15.3125 C 102.617188 -13.925781 103 -12.476562 103 -10.96875 C 103 -9.195312 102.554688 -7.648438 101.671875 -6.328125 C 100.796875 -5.003906 99.695312 -3.898438 98.375 -3.015625 C 97.050781 -2.140625 95.664062 -1.476562 94.21875 -1.03125 C 92.769531 -0.59375 91.476562 -0.375 90.34375 -0.375 Z M 53.859375 -17.015625 C 61.671875 -17.015625 67.65625 -19.34375 71.8125 -24 C 75.976562 -28.664062 78.0625 -36.351562 78.0625 -47.0625 C 78.0625 -67.601562 69.929688 -77.875 53.671875 -77.875 C 49.890625 -77.875 46.234375 -77.304688 42.703125 -76.171875 C 39.179688 -75.035156 36.066406 -73.269531 33.359375 -70.875 C 30.648438 -68.476562 28.441406 -65.453125 26.734375 -61.796875 C 25.035156 -58.148438 24.1875 -53.804688 24.1875 -48.765625 C 24.1875 -44.609375 24.785156 -40.640625 25.984375 -36.859375 C 27.179688 -33.078125 29.007812 -29.703125 31.46875 -26.734375 C 33.925781 -23.773438 37.015625 -21.414062 40.734375 -19.65625 C 44.453125 -17.894531 48.828125 -17.015625 53.859375 -17.015625 Z M 53.859375 -17.015625 "/></g></g></g><path stroke-linecap="butt" transform="matrix(3.750827, 0, 0, 3.75, 71.880816, 451.507509)" fill="none" stroke-linejoin="miter" d="M -0.000509209 0.0000808573 L 184.159897 0.0000808573 " stroke="#a20000" stroke-width="1" stroke-opacity="1" stroke-miterlimit="4"/><g fill="#a20000" fill-opacity="1"><g transform="translate(792.387213, 470.112536)"><g><path d="M 23.546875 -29.28125 C 23.859375 -29.957031 24.3125 -30.460938 24.90625 -30.796875 C 25.5 -31.128906 26.15625 -31.296875 26.875 -31.296875 C 27.5 -31.296875 28.109375 -31.140625 28.703125 -30.828125 C 29.296875 -30.523438 29.773438 -30.035156 30.140625 -29.359375 C 31.628906 -26.566406 32.976562 -23.738281 34.1875 -20.875 C 35.40625 -18.007812 36.710938 -15.101562 38.109375 -12.15625 C 39.398438 -16.34375 40.535156 -20.382812 41.515625 -24.28125 C 42.503906 -28.1875 43.515625 -32.023438 44.546875 -35.796875 C 44.910156 -37.140625 45.398438 -38.03125 46.015625 -38.46875 C 46.640625 -38.90625 47.441406 -39.125 48.421875 -39.125 C 49.296875 -39.125 50.015625 -38.878906 50.578125 -38.390625 C 51.148438 -37.898438 51.4375 -37.238281 51.4375 -36.40625 C 51.4375 -35.738281 51.269531 -34.566406 50.9375 -32.890625 C 50.601562 -31.210938 50.164062 -29.273438 49.625 -27.078125 C 49.082031 -24.878906 48.488281 -22.539062 47.84375 -20.0625 C 47.195312 -17.582031 46.550781 -15.207031 45.90625 -12.9375 C 45.257812 -10.664062 44.648438 -8.597656 44.078125 -6.734375 C 43.515625 -4.878906 43.078125 -3.488281 42.765625 -2.5625 C 42.347656 -1.375 41.851562 -0.484375 41.28125 0.109375 C 40.71875 0.703125 39.84375 1 38.65625 1 C 37.570312 1 36.664062 0.578125 35.9375 -0.265625 C 35.21875 -1.117188 34.550781 -2.140625 33.9375 -3.328125 C 33.726562 -3.742188 33.390625 -4.441406 32.921875 -5.421875 C 32.460938 -6.398438 31.910156 -7.5625 31.265625 -8.90625 C 30.617188 -10.25 29.921875 -11.71875 29.171875 -13.3125 C 28.421875 -14.914062 27.65625 -16.546875 26.875 -18.203125 C 26.101562 -16.546875 25.316406 -14.914062 24.515625 -13.3125 C 23.710938 -11.71875 22.972656 -10.234375 22.296875 -8.859375 C 21.628906 -7.492188 21.050781 -6.320312 20.5625 -5.34375 C 20.070312 -4.363281 19.722656 -3.664062 19.515625 -3.25 C 18.898438 -2.0625 18.242188 -1.039062 17.546875 -0.1875 C 16.847656 0.65625 15.929688 1.078125 14.796875 1.078125 C 12.984375 1.078125 11.613281 -0.109375 10.6875 -2.484375 C 10.320312 -3.410156 9.851562 -4.789062 9.28125 -6.625 C 8.71875 -8.457031 8.125 -10.507812 7.5 -12.78125 C 6.882812 -15.050781 6.265625 -17.410156 5.640625 -19.859375 C 5.023438 -22.316406 4.472656 -24.628906 3.984375 -26.796875 C 3.492188 -28.972656 3.09375 -30.882812 2.78125 -32.53125 C 2.476562 -34.1875 2.328125 -35.375 2.328125 -36.09375 C 2.328125 -36.976562 2.570312 -37.703125 3.0625 -38.265625 C 3.550781 -38.835938 4.257812 -39.125 5.1875 -39.125 C 6.21875 -39.125 7.054688 -38.90625 7.703125 -38.46875 C 8.347656 -38.03125 8.851562 -37.140625 9.21875 -35.796875 C 10.25 -32.023438 11.253906 -28.1875 12.234375 -24.28125 C 13.222656 -20.382812 14.363281 -16.34375 15.65625 -12.15625 C 16.789062 -14.632812 17.925781 -17.21875 19.0625 -19.90625 C 20.195312 -22.59375 21.691406 -25.71875 23.546875 -29.28125 Z M 23.546875 -29.28125 "/></g></g></g><g fill="#a20000" fill-opacity="1"><g transform="translate(846.850422, 470.112536)"><g><path d="M 5.265625 -4.796875 C 5.160156 -6.710938 5.066406 -8.894531 4.984375 -11.34375 C 4.910156 -13.800781 4.875 -16.5 4.875 -19.4375 C 4.875 -23.101562 4.898438 -26.238281 4.953125 -28.84375 C 5.003906 -31.457031 5.144531 -33.601562 5.375 -35.28125 C 5.613281 -36.96875 5.988281 -38.207031 6.5 -39 C 7.019531 -39.800781 7.742188 -40.203125 8.671875 -40.203125 C 9.554688 -40.203125 10.332031 -39.890625 11 -39.265625 C 11.664062 -38.648438 12.050781 -37.3125 12.15625 -35.25 C 12.46875 -29.820312 12.625 -24.578125 12.625 -19.515625 C 12.625 -16.941406 12.570312 -14.53125 12.46875 -12.28125 C 12.363281 -10.03125 12.257812 -7.5625 12.15625 -4.875 C 12.101562 -3.632812 11.988281 -2.675781 11.8125 -2 C 11.632812 -1.332031 11.390625 -0.816406 11.078125 -0.453125 C 10.765625 -0.0976562 10.414062 0.113281 10.03125 0.1875 C 9.644531 0.269531 9.191406 0.3125 8.671875 0.3125 C 7.742188 0.3125 6.96875 -0.0078125 6.34375 -0.65625 C 5.726562 -1.300781 5.367188 -2.679688 5.265625 -4.796875 Z M 8.75 -54.234375 C 9.9375 -54.234375 11.035156 -53.765625 12.046875 -52.828125 C 13.054688 -51.898438 13.5625 -50.789062 13.5625 -49.5 C 13.5625 -48.257812 13.039062 -47.1875 12 -46.28125 C 10.96875 -45.382812 9.804688 -44.9375 8.515625 -44.9375 C 7.429688 -44.9375 6.410156 -45.382812 5.453125 -46.28125 C 4.503906 -47.1875 4.03125 -48.3125 4.03125 -49.65625 C 4.03125 -50.894531 4.503906 -51.96875 5.453125 -52.875 C 6.410156 -53.78125 7.507812 -54.234375 8.75 -54.234375 Z M 8.75 -54.234375 "/></g></g></g><g fill="#a20000" fill-opacity="1"><g transform="translate(864.359217, 470.112536)"><g><path d="M 11.390625 -5.03125 C 11.234375 -8.289062 11.140625 -12.148438 11.109375 -16.609375 C 11.085938 -21.078125 11.078125 -26.15625 11.078125 -31.84375 C 10.554688 -31.789062 9.945312 -31.765625 9.25 -31.765625 C 8.5625 -31.765625 8.007812 -31.765625 7.59375 -31.765625 C 6.664062 -31.765625 5.828125 -31.789062 5.078125 -31.84375 C 4.328125 -31.894531 3.664062 -32.046875 3.09375 -32.296875 C 2.53125 -32.554688 2.09375 -32.929688 1.78125 -33.421875 C 1.46875 -33.910156 1.3125 -34.597656 1.3125 -35.484375 C 1.3125 -37.960938 3.171875 -39.203125 6.890625 -39.203125 C 7.460938 -39.203125 8.160156 -39.203125 8.984375 -39.203125 C 9.804688 -39.203125 10.503906 -39.148438 11.078125 -39.046875 C 11.078125 -41.785156 11.128906 -43.976562 11.234375 -45.625 C 11.335938 -47.28125 11.53125 -48.554688 11.8125 -49.453125 C 12.09375 -50.359375 12.476562 -50.953125 12.96875 -51.234375 C 13.46875 -51.523438 14.101562 -51.671875 14.875 -51.671875 C 15.695312 -51.671875 16.363281 -51.382812 16.875 -50.8125 C 17.394531 -50.25 17.796875 -49.523438 18.078125 -48.640625 C 18.367188 -47.765625 18.550781 -46.785156 18.625 -45.703125 C 18.707031 -44.617188 18.75 -43.5625 18.75 -42.53125 C 18.75 -41.8125 18.734375 -41.148438 18.703125 -40.546875 C 18.679688 -39.953125 18.671875 -39.425781 18.671875 -38.96875 C 19.390625 -39.175781 20.132812 -39.289062 20.90625 -39.3125 C 21.6875 -39.34375 22.4375 -39.359375 23.15625 -39.359375 C 25.070312 -39.359375 26.546875 -39.0625 27.578125 -38.46875 C 28.609375 -37.875 29.125 -36.90625 29.125 -35.5625 C 29.125 -34.726562 28.941406 -34.066406 28.578125 -33.578125 C 28.222656 -33.085938 27.75 -32.710938 27.15625 -32.453125 C 26.5625 -32.203125 25.863281 -32.035156 25.0625 -31.953125 C 24.257812 -31.878906 23.394531 -31.84375 22.46875 -31.84375 C 21.945312 -31.84375 21.347656 -31.84375 20.671875 -31.84375 C 20.003906 -31.84375 19.390625 -31.894531 18.828125 -32 C 18.828125 -29.257812 18.828125 -26.753906 18.828125 -24.484375 C 18.828125 -22.210938 18.800781 -20.03125 18.75 -17.9375 C 18.695312 -15.84375 18.644531 -13.757812 18.59375 -11.6875 C 18.539062 -9.625 18.460938 -7.429688 18.359375 -5.109375 C 18.304688 -3.867188 18.1875 -2.910156 18 -2.234375 C 17.820312 -1.566406 17.578125 -1.050781 17.265625 -0.6875 C 16.960938 -0.332031 16.617188 -0.113281 16.234375 -0.03125 C 15.847656 0.0390625 15.394531 0.078125 14.875 0.078125 C 13.945312 0.078125 13.160156 -0.242188 12.515625 -0.890625 C 11.867188 -1.535156 11.492188 -2.914062 11.390625 -5.03125 Z M 11.390625 -5.03125 "/></g></g></g><g fill="#a20000" fill-opacity="1"><g transform="translate(895.115831, 470.112536)"><g><path d="M 22.859375 -31.84375 C 20.941406 -31.84375 19.222656 -31.554688 17.703125 -30.984375 C 16.179688 -30.421875 14.460938 -29.644531 12.546875 -28.65625 C 12.546875 -28.601562 12.546875 -28.113281 12.546875 -27.1875 C 12.546875 -26.257812 12.53125 -25.070312 12.5 -23.625 C 12.476562 -22.175781 12.453125 -20.5625 12.421875 -18.78125 C 12.398438 -17 12.375 -15.21875 12.34375 -13.4375 C 12.320312 -11.65625 12.269531 -9.960938 12.1875 -8.359375 C 12.113281 -6.765625 12.050781 -5.425781 12 -4.34375 C 11.90625 -3.257812 11.789062 -2.40625 11.65625 -1.78125 C 11.53125 -1.164062 11.375 -0.710938 11.1875 -0.421875 C 11.007812 -0.140625 10.765625 0.0234375 10.453125 0.078125 C 10.148438 0.128906 9.816406 0.15625 9.453125 0.15625 C 8.578125 0.15625 7.890625 0.113281 7.390625 0.03125 C 6.898438 -0.0390625 6.5 -0.21875 6.1875 -0.5 C 5.882812 -0.78125 5.664062 -1.207031 5.53125 -1.78125 C 5.40625 -2.351562 5.289062 -3.128906 5.1875 -4.109375 C 5.082031 -5.085938 4.988281 -6.441406 4.90625 -8.171875 C 4.832031 -9.898438 4.769531 -11.835938 4.71875 -13.984375 C 4.664062 -16.128906 4.628906 -18.414062 4.609375 -20.84375 C 4.585938 -23.269531 4.578125 -25.671875 4.578125 -28.046875 C 4.578125 -30.421875 4.585938 -32.9375 4.609375 -35.59375 C 4.628906 -38.257812 4.664062 -40.816406 4.71875 -43.265625 C 4.769531 -45.722656 4.820312 -47.914062 4.875 -49.84375 C 4.925781 -51.78125 5.003906 -53.21875 5.109375 -54.15625 C 5.210938 -55.5 5.457031 -56.660156 5.84375 -57.640625 C 6.238281 -58.617188 7.101562 -59.109375 8.4375 -59.109375 C 9.476562 -59.109375 10.320312 -58.742188 10.96875 -58.015625 C 11.613281 -57.296875 11.984375 -55.929688 12.078125 -53.921875 C 12.179688 -52.109375 12.269531 -49.585938 12.34375 -46.359375 C 12.425781 -43.128906 12.492188 -39.503906 12.546875 -35.484375 C 13.273438 -36.046875 14.15625 -36.570312 15.1875 -37.0625 C 16.21875 -37.5625 17.300781 -37.976562 18.4375 -38.3125 C 19.570312 -38.644531 20.734375 -38.914062 21.921875 -39.125 C 23.109375 -39.332031 24.21875 -39.4375 25.25 -39.4375 C 27.726562 -39.4375 29.882812 -38.851562 31.71875 -37.6875 C 33.550781 -36.53125 35.007812 -34.863281 36.09375 -32.6875 C 36.820312 -31.289062 37.363281 -29.753906 37.71875 -28.078125 C 38.082031 -26.398438 38.34375 -24.632812 38.5 -22.78125 C 38.550781 -21.945312 38.601562 -21.128906 38.65625 -20.328125 C 38.707031 -19.535156 38.742188 -18.6875 38.765625 -17.78125 C 38.796875 -16.875 38.8125 -15.851562 38.8125 -14.71875 C 38.8125 -13.582031 38.8125 -12.238281 38.8125 -10.6875 C 38.8125 -9.132812 38.785156 -7.703125 38.734375 -6.390625 C 38.679688 -5.078125 38.535156 -3.941406 38.296875 -2.984375 C 38.066406 -2.023438 37.691406 -1.273438 37.171875 -0.734375 C 36.660156 -0.191406 35.941406 0.078125 35.015625 0.078125 C 33.671875 0.078125 32.675781 -0.347656 32.03125 -1.203125 C 31.382812 -2.054688 31.0625 -3.078125 31.0625 -4.265625 C 31.0625 -4.316406 31.0625 -4.859375 31.0625 -5.890625 C 31.0625 -6.921875 31.046875 -8.117188 31.015625 -9.484375 C 30.992188 -10.859375 30.96875 -12.238281 30.9375 -13.625 C 30.914062 -15.019531 30.878906 -16.160156 30.828125 -17.046875 C 30.773438 -17.867188 30.707031 -18.757812 30.625 -19.71875 C 30.550781 -20.675781 30.453125 -21.644531 30.328125 -22.625 C 30.203125 -23.601562 30.035156 -24.539062 29.828125 -25.4375 C 29.617188 -26.34375 29.359375 -27.160156 29.046875 -27.890625 C 28.328125 -29.585938 27.425781 -30.671875 26.34375 -31.140625 C 25.257812 -31.609375 24.097656 -31.84375 22.859375 -31.84375 Z M 22.859375 -31.84375 "/></g></g></g><g fill="#a20000" fill-opacity="1"><g transform="translate(938.113101, 470.112536)"><g/></g></g><g fill="#ffbd59" fill-opacity="1"><g transform="translate(954.293459, 470.112536)"><g><path d="M 56.9375 -2.328125 C 56.625 -3.203125 56.429688 -4.179688 56.359375 -5.265625 C 56.285156 -6.347656 56.25 -7.691406 56.25 -9.296875 C 56.25 -10.429688 56.257812 -11.320312 56.28125 -11.96875 C 56.300781 -12.613281 56.3125 -13.179688 56.3125 -13.671875 C 56.3125 -14.160156 56.320312 -14.648438 56.34375 -15.140625 C 56.375 -15.628906 56.390625 -16.316406 56.390625 -17.203125 C 56.390625 -19.003906 56.351562 -20.820312 56.28125 -22.65625 C 56.207031 -24.488281 55.9375 -26.140625 55.46875 -27.609375 C 55 -29.085938 54.273438 -30.289062 53.296875 -31.21875 C 52.316406 -32.144531 50.894531 -32.609375 49.03125 -32.609375 C 45.882812 -32.609375 43.429688 -31.109375 41.671875 -28.109375 C 39.921875 -25.117188 38.863281 -20.347656 38.5 -13.796875 C 38.394531 -11.722656 38.34375 -9.832031 38.34375 -8.125 C 38.34375 -6.425781 38.238281 -4.96875 38.03125 -3.75 C 37.832031 -2.539062 37.457031 -1.597656 36.90625 -0.921875 C 36.363281 -0.253906 35.472656 0.078125 34.234375 0.078125 C 33.097656 0.078125 32.269531 -0.21875 31.75 -0.8125 C 31.238281 -1.40625 30.867188 -2.296875 30.640625 -3.484375 C 30.410156 -4.671875 30.28125 -6.113281 30.25 -7.8125 C 30.226562 -9.519531 30.140625 -11.515625 29.984375 -13.796875 C 29.828125 -16.273438 29.578125 -18.648438 29.234375 -20.921875 C 28.898438 -23.191406 28.359375 -25.191406 27.609375 -26.921875 C 26.867188 -28.648438 25.863281 -30.03125 24.59375 -31.0625 C 23.332031 -32.09375 21.71875 -32.609375 19.75 -32.609375 C 17.894531 -32.609375 16.460938 -32.15625 15.453125 -31.25 C 14.441406 -30.351562 13.703125 -29.164062 13.234375 -27.6875 C 12.773438 -26.21875 12.503906 -24.566406 12.421875 -22.734375 C 12.347656 -20.898438 12.3125 -19.054688 12.3125 -17.203125 C 12.3125 -16.265625 12.320312 -15.578125 12.34375 -15.140625 C 12.375 -14.703125 12.390625 -14.300781 12.390625 -13.9375 C 12.390625 -13.582031 12.398438 -13.117188 12.421875 -12.546875 C 12.453125 -11.984375 12.46875 -11.109375 12.46875 -9.921875 C 12.46875 -8.210938 12.425781 -6.738281 12.34375 -5.5 C 12.269531 -4.257812 12.082031 -3.203125 11.78125 -2.328125 C 11.414062 -1.296875 10.921875 -0.660156 10.296875 -0.421875 C 9.679688 -0.191406 9.113281 -0.078125 8.59375 -0.078125 C 7 -0.078125 5.96875 -0.644531 5.5 -1.78125 C 5.03125 -2.914062 4.769531 -4.566406 4.71875 -6.734375 C 4.71875 -7.921875 4.703125 -9.25 4.671875 -10.71875 C 4.648438 -12.195312 4.640625 -13.992188 4.640625 -16.109375 C 4.640625 -17.140625 4.640625 -18.039062 4.640625 -18.8125 C 4.640625 -19.59375 4.648438 -20.34375 4.671875 -21.0625 C 4.703125 -21.789062 4.726562 -22.53125 4.75 -23.28125 C 4.78125 -24.03125 4.820312 -24.894531 4.875 -25.875 C 5.03125 -29.019531 5.597656 -31.535156 6.578125 -33.421875 C 7.566406 -35.304688 8.726562 -36.738281 10.0625 -37.71875 C 11.40625 -38.707031 12.851562 -39.34375 14.40625 -39.625 C 15.957031 -39.90625 17.378906 -40.046875 18.671875 -40.046875 C 21.460938 -40.046875 23.8125 -39.632812 25.71875 -38.8125 C 27.625 -37.988281 29.1875 -36.90625 30.40625 -35.5625 C 31.625 -34.21875 32.53125 -32.691406 33.125 -30.984375 C 33.71875 -29.285156 34.113281 -27.554688 34.3125 -25.796875 C 34.519531 -27.503906 34.945312 -29.195312 35.59375 -30.875 C 36.238281 -32.550781 37.191406 -34.046875 38.453125 -35.359375 C 39.722656 -36.679688 41.363281 -37.753906 43.375 -38.578125 C 45.394531 -39.398438 47.875 -39.8125 50.8125 -39.8125 C 52.207031 -39.8125 53.640625 -39.671875 55.109375 -39.390625 C 56.585938 -39.109375 57.945312 -38.472656 59.1875 -37.484375 C 60.425781 -36.503906 61.472656 -35.097656 62.328125 -33.265625 C 63.179688 -31.429688 63.679688 -28.96875 63.828125 -25.875 C 63.878906 -24.894531 63.914062 -24.03125 63.9375 -23.28125 C 63.96875 -22.53125 63.992188 -21.789062 64.015625 -21.0625 C 64.046875 -20.34375 64.0625 -19.59375 64.0625 -18.8125 C 64.0625 -18.039062 64.0625 -17.140625 64.0625 -16.109375 C 64.0625 -13.992188 64.046875 -12.195312 64.015625 -10.71875 C 63.992188 -9.25 63.984375 -7.921875 63.984375 -6.734375 C 63.984375 -5.753906 63.941406 -4.847656 63.859375 -4.015625 C 63.785156 -3.191406 63.617188 -2.492188 63.359375 -1.921875 C 63.109375 -1.359375 62.738281 -0.910156 62.25 -0.578125 C 61.757812 -0.242188 61.046875 -0.078125 60.109375 -0.078125 C 59.234375 -0.078125 58.5625 -0.242188 58.09375 -0.578125 C 57.632812 -0.910156 57.25 -1.492188 56.9375 -2.328125 Z M 56.9375 -2.328125 "/></g></g></g><g fill="#ffbd59" fill-opacity="1"><g transform="translate(1022.701727, 470.112536)"><g><path d="M 5.265625 -4.796875 C 5.160156 -6.710938 5.066406 -8.894531 4.984375 -11.34375 C 4.910156 -13.800781 4.875 -16.5 4.875 -19.4375 C 4.875 -23.101562 4.898438 -26.238281 4.953125 -28.84375 C 5.003906 -31.457031 5.144531 -33.601562 5.375 -35.28125 C 5.613281 -36.96875 5.988281 -38.207031 6.5 -39 C 7.019531 -39.800781 7.742188 -40.203125 8.671875 -40.203125 C 9.554688 -40.203125 10.332031 -39.890625 11 -39.265625 C 11.664062 -38.648438 12.050781 -37.3125 12.15625 -35.25 C 12.46875 -29.820312 12.625 -24.578125 12.625 -19.515625 C 12.625 -16.941406 12.570312 -14.53125 12.46875 -12.28125 C 12.363281 -10.03125 12.257812 -7.5625 12.15625 -4.875 C 12.101562 -3.632812 11.988281 -2.675781 11.8125 -2 C 11.632812 -1.332031 11.390625 -0.816406 11.078125 -0.453125 C 10.765625 -0.0976562 10.414062 0.113281 10.03125 0.1875 C 9.644531 0.269531 9.191406 0.3125 8.671875 0.3125 C 7.742188 0.3125 6.96875 -0.0078125 6.34375 -0.65625 C 5.726562 -1.300781 5.367188 -2.679688 5.265625 -4.796875 Z M 8.75 -54.234375 C 9.9375 -54.234375 11.035156 -53.765625 12.046875 -52.828125 C 13.054688 -51.898438 13.5625 -50.789062 13.5625 -49.5 C 13.5625 -48.257812 13.039062 -47.1875 12 -46.28125 C 10.96875 -45.382812 9.804688 -44.9375 8.515625 -44.9375 C 7.429688 -44.9375 6.410156 -45.382812 5.453125 -46.28125 C 4.503906 -47.1875 4.03125 -48.3125 4.03125 -49.65625 C 4.03125 -50.894531 4.503906 -51.96875 5.453125 -52.875 C 6.410156 -53.78125 7.507812 -54.234375 8.75 -54.234375 Z M 8.75 -54.234375 "/></g></g></g><g fill="#ffbd59" fill-opacity="1"><g transform="translate(1040.210523, 470.112536)"><g><path d="M 22.390625 -39.515625 C 23.890625 -39.515625 25.398438 -39.382812 26.921875 -39.125 C 28.441406 -38.863281 29.820312 -38.5 31.0625 -38.03125 C 32.300781 -37.570312 33.304688 -37.003906 34.078125 -36.328125 C 34.859375 -35.660156 35.25 -34.890625 35.25 -34.015625 C 35.25 -31.734375 33.957031 -30.59375 31.375 -30.59375 C 30.75 -30.59375 30.164062 -30.679688 29.625 -30.859375 C 29.082031 -31.046875 28.453125 -31.226562 27.734375 -31.40625 C 27.015625 -31.59375 26.109375 -31.773438 25.015625 -31.953125 C 23.929688 -32.140625 22.59375 -32.234375 21 -32.234375 C 17.582031 -32.234375 14.941406 -31.066406 13.078125 -28.734375 C 11.222656 -26.410156 10.296875 -23.390625 10.296875 -19.671875 C 10.296875 -15.597656 11.238281 -12.320312 13.125 -9.84375 C 15.007812 -7.363281 17.6875 -6.125 21.15625 -6.125 C 23.320312 -6.125 25.078125 -6.300781 26.421875 -6.65625 C 27.765625 -7.019531 28.859375 -7.429688 29.703125 -7.890625 C 30.554688 -8.359375 31.253906 -8.773438 31.796875 -9.140625 C 32.335938 -9.503906 32.945312 -9.6875 33.625 -9.6875 C 34.550781 -9.6875 35.285156 -9.488281 35.828125 -9.09375 C 36.367188 -8.707031 36.640625 -7.921875 36.640625 -6.734375 C 36.640625 -5.492188 36.160156 -4.410156 35.203125 -3.484375 C 34.253906 -2.554688 33.054688 -1.78125 31.609375 -1.15625 C 30.160156 -0.539062 28.597656 -0.078125 26.921875 0.234375 C 25.242188 0.546875 23.707031 0.703125 22.3125 0.703125 C 16.0625 0.703125 11.15625 -1.023438 7.59375 -4.484375 C 4.03125 -7.953125 2.25 -12.863281 2.25 -19.21875 C 2.25 -21.945312 2.671875 -24.535156 3.515625 -26.984375 C 4.367188 -29.441406 5.648438 -31.597656 7.359375 -33.453125 C 9.066406 -35.316406 11.171875 -36.789062 13.671875 -37.875 C 16.179688 -38.96875 19.085938 -39.515625 22.390625 -39.515625 Z M 22.390625 -39.515625 "/></g></g></g><g fill="#ffbd59" fill-opacity="1"><g transform="translate(1078.714385, 470.112536)"><g><path d="M 22.859375 -31.84375 C 20.941406 -31.84375 19.222656 -31.554688 17.703125 -30.984375 C 16.179688 -30.421875 14.460938 -29.644531 12.546875 -28.65625 C 12.546875 -28.601562 12.546875 -28.113281 12.546875 -27.1875 C 12.546875 -26.257812 12.53125 -25.070312 12.5 -23.625 C 12.476562 -22.175781 12.453125 -20.5625 12.421875 -18.78125 C 12.398438 -17 12.375 -15.21875 12.34375 -13.4375 C 12.320312 -11.65625 12.269531 -9.960938 12.1875 -8.359375 C 12.113281 -6.765625 12.050781 -5.425781 12 -4.34375 C 11.90625 -3.257812 11.789062 -2.40625 11.65625 -1.78125 C 11.53125 -1.164062 11.375 -0.710938 11.1875 -0.421875 C 11.007812 -0.140625 10.765625 0.0234375 10.453125 0.078125 C 10.148438 0.128906 9.816406 0.15625 9.453125 0.15625 C 8.578125 0.15625 7.890625 0.113281 7.390625 0.03125 C 6.898438 -0.0390625 6.5 -0.21875 6.1875 -0.5 C 5.882812 -0.78125 5.664062 -1.207031 5.53125 -1.78125 C 5.40625 -2.351562 5.289062 -3.128906 5.1875 -4.109375 C 5.082031 -5.085938 4.988281 -6.441406 4.90625 -8.171875 C 4.832031 -9.898438 4.769531 -11.835938 4.71875 -13.984375 C 4.664062 -16.128906 4.628906 -18.414062 4.609375 -20.84375 C 4.585938 -23.269531 4.578125 -25.671875 4.578125 -28.046875 C 4.578125 -30.421875 4.585938 -32.9375 4.609375 -35.59375 C 4.628906 -38.257812 4.664062 -40.816406 4.71875 -43.265625 C 4.769531 -45.722656 4.820312 -47.914062 4.875 -49.84375 C 4.925781 -51.78125 5.003906 -53.21875 5.109375 -54.15625 C 5.210938 -55.5 5.457031 -56.660156 5.84375 -57.640625 C 6.238281 -58.617188 7.101562 -59.109375 8.4375 -59.109375 C 9.476562 -59.109375 10.320312 -58.742188 10.96875 -58.015625 C 11.613281 -57.296875 11.984375 -55.929688 12.078125 -53.921875 C 12.179688 -52.109375 12.269531 -49.585938 12.34375 -46.359375 C 12.425781 -43.128906 12.492188 -39.503906 12.546875 -35.484375 C 13.273438 -36.046875 14.15625 -36.570312 15.1875 -37.0625 C 16.21875 -37.5625 17.300781 -37.976562 18.4375 -38.3125 C 19.570312 -38.644531 20.734375 -38.914062 21.921875 -39.125 C 23.109375 -39.332031 24.21875 -39.4375 25.25 -39.4375 C 27.726562 -39.4375 29.882812 -38.851562 31.71875 -37.6875 C 33.550781 -36.53125 35.007812 -34.863281 36.09375 -32.6875 C 36.820312 -31.289062 37.363281 -29.753906 37.71875 -28.078125 C 38.082031 -26.398438 38.34375 -24.632812 38.5 -22.78125 C 38.550781 -21.945312 38.601562 -21.128906 38.65625 -20.328125 C 38.707031 -19.535156 38.742188 -18.6875 38.765625 -17.78125 C 38.796875 -16.875 38.8125 -15.851562 38.8125 -14.71875 C 38.8125 -13.582031 38.8125 -12.238281 38.8125 -10.6875 C 38.8125 -9.132812 38.785156 -7.703125 38.734375 -6.390625 C 38.679688 -5.078125 38.535156 -3.941406 38.296875 -2.984375 C 38.066406 -2.023438 37.691406 -1.273438 37.171875 -0.734375 C 36.660156 -0.191406 35.941406 0.078125 35.015625 0.078125 C 33.671875 0.078125 32.675781 -0.347656 32.03125 -1.203125 C 31.382812 -2.054688 31.0625 -3.078125 31.0625 -4.265625 C 31.0625 -4.316406 31.0625 -4.859375 31.0625 -5.890625 C 31.0625 -6.921875 31.046875 -8.117188 31.015625 -9.484375 C 30.992188 -10.859375 30.96875 -12.238281 30.9375 -13.625 C 30.914062 -15.019531 30.878906 -16.160156 30.828125 -17.046875 C 30.773438 -17.867188 30.707031 -18.757812 30.625 -19.71875 C 30.550781 -20.675781 30.453125 -21.644531 30.328125 -22.625 C 30.203125 -23.601562 30.035156 -24.539062 29.828125 -25.4375 C 29.617188 -26.34375 29.359375 -27.160156 29.046875 -27.890625 C 28.328125 -29.585938 27.425781 -30.671875 26.34375 -31.140625 C 25.257812 -31.609375 24.097656 -31.84375 22.859375 -31.84375 Z M 22.859375 -31.84375 "/></g></g></g><g fill="#ffbd59" fill-opacity="1"><g transform="translate(1121.711656, 470.112536)"><g><path d="M 5.265625 -4.796875 C 5.160156 -6.710938 5.066406 -8.894531 4.984375 -11.34375 C 4.910156 -13.800781 4.875 -16.5 4.875 -19.4375 C 4.875 -23.101562 4.898438 -26.238281 4.953125 -28.84375 C 5.003906 -31.457031 5.144531 -33.601562 5.375 -35.28125 C 5.613281 -36.96875 5.988281 -38.207031 6.5 -39 C 7.019531 -39.800781 7.742188 -40.203125 8.671875 -40.203125 C 9.554688 -40.203125 10.332031 -39.890625 11 -39.265625 C 11.664062 -38.648438 12.050781 -37.3125 12.15625 -35.25 C 12.46875 -29.820312 12.625 -24.578125 12.625 -19.515625 C 12.625 -16.941406 12.570312 -14.53125 12.46875 -12.28125 C 12.363281 -10.03125 12.257812 -7.5625 12.15625 -4.875 C 12.101562 -3.632812 11.988281 -2.675781 11.8125 -2 C 11.632812 -1.332031 11.390625 -0.816406 11.078125 -0.453125 C 10.765625 -0.0976562 10.414062 0.113281 10.03125 0.1875 C 9.644531 0.269531 9.191406 0.3125 8.671875 0.3125 C 7.742188 0.3125 6.96875 -0.0078125 6.34375 -0.65625 C 5.726562 -1.300781 5.367188 -2.679688 5.265625 -4.796875 Z M 8.75 -54.234375 C 9.9375 -54.234375 11.035156 -53.765625 12.046875 -52.828125 C 13.054688 -51.898438 13.5625 -50.789062 13.5625 -49.5 C 13.5625 -48.257812 13.039062 -47.1875 12 -46.28125 C 10.96875 -45.382812 9.804688 -44.9375 8.515625 -44.9375 C 7.429688 -44.9375 6.410156 -45.382812 5.453125 -46.28125 C 4.503906 -47.1875 4.03125 -48.3125 4.03125 -49.65625 C 4.03125 -50.894531 4.503906 -51.96875 5.453125 -52.875 C 6.410156 -53.78125 7.507812 -54.234375 8.75 -54.234375 Z M 8.75 -54.234375 "/></g></g></g><g fill="#ffbd59" fill-opacity="1"><g transform="translate(1139.220451, 470.112536)"><g><path d="M 13.25 -50.671875 C 13.25 -47.566406 13.15625 -44.320312 12.96875 -40.9375 C 12.789062 -37.5625 12.570312 -34.269531 12.3125 -31.0625 C 12.988281 -32.457031 13.867188 -33.65625 14.953125 -34.65625 C 16.035156 -35.664062 17.234375 -36.476562 18.546875 -37.09375 C 19.867188 -37.71875 21.253906 -38.1875 22.703125 -38.5 C 24.148438 -38.8125 25.539062 -38.96875 26.875 -38.96875 C 29.207031 -38.96875 31.390625 -38.539062 33.421875 -37.6875 C 35.460938 -36.832031 37.242188 -35.59375 38.765625 -33.96875 C 40.296875 -32.34375 41.484375 -30.328125 42.328125 -27.921875 C 43.179688 -25.523438 43.609375 -22.773438 43.609375 -19.671875 C 43.609375 -16.679688 43.171875 -13.945312 42.296875 -11.46875 C 41.421875 -8.988281 40.117188 -6.859375 38.390625 -5.078125 C 36.660156 -3.296875 34.515625 -1.910156 31.953125 -0.921875 C 29.398438 0.0546875 26.46875 0.546875 23.15625 0.546875 C 18.664062 0.546875 15.140625 -0.351562 12.578125 -2.15625 C 10.023438 -3.96875 8.128906 -6.382812 6.890625 -9.40625 C 5.648438 -12.425781 4.890625 -15.898438 4.609375 -19.828125 C 4.328125 -23.753906 4.1875 -27.863281 4.1875 -32.15625 C 4.1875 -36.488281 4.257812 -40.410156 4.40625 -43.921875 C 4.5625 -47.429688 4.796875 -50.273438 5.109375 -52.453125 C 5.421875 -54.410156 5.9375 -55.800781 6.65625 -56.625 C 7.382812 -57.457031 8.34375 -57.875 9.53125 -57.875 C 10.40625 -57.875 11.097656 -57.675781 11.609375 -57.28125 C 12.128906 -56.894531 12.503906 -56.363281 12.734375 -55.6875 C 12.972656 -55.019531 13.117188 -54.257812 13.171875 -53.40625 C 13.222656 -52.5625 13.25 -51.648438 13.25 -50.671875 Z M 24.71875 -31.296875 C 23.21875 -31.296875 21.78125 -31.050781 20.40625 -30.5625 C 19.039062 -30.070312 17.828125 -29.3125 16.765625 -28.28125 C 15.710938 -27.25 14.875 -25.941406 14.25 -24.359375 C 13.632812 -22.785156 13.328125 -20.890625 13.328125 -18.671875 C 13.328125 -14.742188 14.296875 -11.757812 16.234375 -9.71875 C 18.171875 -7.675781 20.765625 -6.65625 24.015625 -6.65625 C 25.359375 -6.65625 26.726562 -6.847656 28.125 -7.234375 C 29.519531 -7.628906 30.785156 -8.300781 31.921875 -9.25 C 33.054688 -10.207031 33.984375 -11.488281 34.703125 -13.09375 C 35.429688 -14.695312 35.796875 -16.6875 35.796875 -19.0625 C 35.796875 -21.175781 35.5 -23.003906 34.90625 -24.546875 C 34.3125 -26.097656 33.492188 -27.378906 32.453125 -28.390625 C 31.421875 -29.398438 30.234375 -30.132812 28.890625 -30.59375 C 27.546875 -31.0625 26.15625 -31.296875 24.71875 -31.296875 Z M 24.71875 -31.296875 "/></g></g></g><g fill="#ffbd59" fill-opacity="1"><g transform="translate(1185.00675, 470.112536)"><g><path d="M 5.265625 -4.796875 C 5.160156 -6.710938 5.066406 -8.894531 4.984375 -11.34375 C 4.910156 -13.800781 4.875 -16.5 4.875 -19.4375 C 4.875 -23.101562 4.898438 -26.238281 4.953125 -28.84375 C 5.003906 -31.457031 5.144531 -33.601562 5.375 -35.28125 C 5.613281 -36.96875 5.988281 -38.207031 6.5 -39 C 7.019531 -39.800781 7.742188 -40.203125 8.671875 -40.203125 C 9.554688 -40.203125 10.332031 -39.890625 11 -39.265625 C 11.664062 -38.648438 12.050781 -37.3125 12.15625 -35.25 C 12.46875 -29.820312 12.625 -24.578125 12.625 -19.515625 C 12.625 -16.941406 12.570312 -14.53125 12.46875 -12.28125 C 12.363281 -10.03125 12.257812 -7.5625 12.15625 -4.875 C 12.101562 -3.632812 11.988281 -2.675781 11.8125 -2 C 11.632812 -1.332031 11.390625 -0.816406 11.078125 -0.453125 C 10.765625 -0.0976562 10.414062 0.113281 10.03125 0.1875 C 9.644531 0.269531 9.191406 0.3125 8.671875 0.3125 C 7.742188 0.3125 6.96875 -0.0078125 6.34375 -0.65625 C 5.726562 -1.300781 5.367188 -2.679688 5.265625 -4.796875 Z M 8.75 -54.234375 C 9.9375 -54.234375 11.035156 -53.765625 12.046875 -52.828125 C 13.054688 -51.898438 13.5625 -50.789062 13.5625 -49.5 C 13.5625 -48.257812 13.039062 -47.1875 12 -46.28125 C 10.96875 -45.382812 9.804688 -44.9375 8.515625 -44.9375 C 7.429688 -44.9375 6.410156 -45.382812 5.453125 -46.28125 C 4.503906 -47.1875 4.03125 -48.3125 4.03125 -49.65625 C 4.03125 -50.894531 4.503906 -51.96875 5.453125 -52.875 C 6.410156 -53.78125 7.507812 -54.234375 8.75 -54.234375 Z M 8.75 -54.234375 "/></g></g></g></svg>